<svg width="54" height="94" viewBox="0 0 54 94" fill="none" xmlns="http://www.w3.org/2000/svg">
<path d="M27.4569 31.0634C20.4189 24.2081 11.0223 2.6322 27.4569 2.01084C42.5708 1.43942 34.1111 23.6222 27.4569 31.0634Z" fill="#73AD59"/>
<path d="M27.4385 52.9052C17.5708 52.2747 -4.72617 39.9561 3.97356 30.3341C11.2548 22.281 26.3994 33.1226 27.4385 52.9052C28.3971 32.7549 40.8271 22.9216 48.4064 28.7407C60.7793 38.2401 38.0796 51.907 27.4385 52.9052Z" fill="#73AD59"/>
<path d="M27.4385 80.3756C17.5708 79.7451 -4.72617 67.4264 3.97356 57.8044C11.2548 49.7513 26.3994 60.593 27.4385 80.3756C28.3971 60.2252 40.8271 50.392 48.4064 56.211C60.7793 65.7104 38.0796 79.3773 27.4385 80.3756Z" fill="#73AD59"/>
<path d="M27.4569 31.0634L26.4103 32.1379L27.5316 33.2301L28.5751 32.0633L27.4569 31.0634ZM27.4569 2.01084L27.4003 0.511909L27.4569 2.01084ZM25.9385 72.4921C25.9385 73.3205 26.6101 73.9921 27.4385 73.9921C28.2669 73.9921 28.9385 73.3205 28.9385 72.4921H25.9385ZM3.97356 30.3341L2.86092 29.3281L3.97356 30.3341ZM48.4064 28.7407L47.4929 29.9305L48.4064 28.7407ZM29.1525 48.569C28.5783 49.1662 28.597 50.1157 29.1941 50.6899C29.7913 51.2641 30.7408 51.2455 31.315 50.6483L29.1525 48.569ZM41.3036 40.2602C41.8777 39.6631 41.8591 38.7135 41.262 38.1393C40.6648 37.5651 39.7152 37.5838 39.1411 38.1809L41.3036 40.2602ZM23.4995 50.9426C24.0838 51.5299 25.0336 51.5322 25.6208 50.9479C26.2081 50.3636 26.2104 49.4138 25.6261 48.8266L23.4995 50.9426ZM14.832 37.9789C14.2477 37.3916 13.298 37.3893 12.7107 37.9736C12.1235 38.5579 12.1211 39.5077 12.7055 40.0949L14.832 37.9789ZM25.6171 47.3863C25.6171 48.2148 26.2887 48.8863 27.1171 48.8863C27.9456 48.8863 28.6171 48.2148 28.6171 47.3863H25.6171ZM28.6171 12.3517C28.6171 11.5233 27.9456 10.8517 27.1171 10.8517C26.2887 10.8517 25.6171 11.5233 25.6171 12.3517H28.6171ZM25.9385 92C25.9385 92.8284 26.6101 93.5 27.4385 93.5C28.2669 93.5 28.9385 92.8284 28.9385 92H25.9385ZM3.97356 57.8044L2.86092 56.7984L3.97356 57.8044ZM48.4064 56.211L47.4929 57.4008L48.4064 56.211ZM29.1525 76.0394C28.5783 76.6365 28.597 77.5861 29.1941 78.1603C29.7913 78.7345 30.7408 78.7158 31.315 78.1187L29.1525 76.0394ZM41.3036 67.7306C41.8777 67.1334 41.8591 66.1839 41.262 65.6097C40.6648 65.0355 39.7152 65.0541 39.1411 65.6513L41.3036 67.7306ZM23.4995 78.413C24.0838 79.0002 25.0336 79.0026 25.6208 78.4183C26.2081 77.8339 26.2104 76.8842 25.6261 76.2969L23.4995 78.413ZM14.832 65.4492C14.2477 64.862 13.298 64.8596 12.7107 65.4439C12.1235 66.0283 12.1211 66.978 12.7055 67.5653L14.832 65.4492ZM27.1171 31.2624H25.6171H27.1171ZM28.5036 29.9889C25.202 26.7731 21.2463 19.9433 20.1295 13.9257C19.5711 10.9173 19.7723 8.37978 20.8227 6.61583C21.8117 4.95486 23.7567 3.65181 27.5136 3.50977L27.4003 0.511909C22.9399 0.680547 19.8965 2.3075 18.245 5.081C16.6549 7.75153 16.5636 11.153 17.1799 14.4731C18.4121 21.1126 22.6738 28.4984 26.4103 32.1379L28.5036 29.9889ZM27.5136 3.50977C30.8925 3.38202 32.592 4.50099 33.4716 6.01599C34.4395 7.68301 34.6479 10.2119 34.14 13.288C33.1289 19.4114 29.4759 26.5553 26.3388 30.0635L28.5751 32.0633C32.0921 28.1303 35.996 20.4622 37.0999 13.7768C37.6495 10.4484 37.5548 7.07373 36.066 4.50964C34.489 1.79354 31.5783 0.353947 27.4003 0.511909L27.5136 3.50977ZM27.5342 51.4083C25.296 51.2653 22.2239 50.4411 18.9632 49.0812C15.7201 47.7286 12.3953 45.8896 9.65268 43.7986C6.88067 41.6852 4.84605 39.4225 3.97214 37.2677C3.54468 36.2137 3.40808 35.2198 3.56007 34.2802C3.71125 33.3455 4.16477 32.3592 5.0862 31.3401L2.86092 29.3281C1.60742 30.7145 0.854652 32.2179 0.598559 33.8011C0.343273 35.3794 0.598417 36.9314 1.19207 38.3952C2.3604 41.276 4.88555 43.9365 7.83377 46.1843C10.8114 48.4545 14.3673 50.4148 17.8084 51.85C21.2317 53.2778 24.6471 54.2299 27.3429 54.4022L27.5342 51.4083ZM5.0862 31.3401C6.58622 29.681 8.43943 29.0192 10.4482 29.1769C12.5072 29.3385 14.8239 30.3758 17.0652 32.3155C21.5415 36.1893 25.4393 43.4419 25.9406 52.9839L28.9364 52.8266C28.3985 42.5859 24.2045 34.5264 19.0284 30.047C16.4435 27.8101 13.5439 26.4106 10.6829 26.1861C7.77184 25.9576 5.00152 26.9606 2.86092 29.3281L5.0862 31.3401ZM28.9368 52.9765C29.4032 43.1731 32.6537 36.0609 36.5097 32.1356C38.4375 30.1733 40.4681 29.0516 42.3421 28.7025C44.1835 28.3595 45.9467 28.7434 47.4929 29.9305L49.3198 27.5509C47.0764 25.8285 44.4436 25.2594 41.7927 25.7532C39.1745 26.2409 36.6166 27.7459 34.3696 30.0333C29.8762 34.6074 26.4324 42.487 25.9402 52.834L28.9368 52.9765ZM47.4929 29.9305C48.8849 30.9991 49.6933 32.0567 50.1124 33.049C50.5261 34.0285 50.5982 35.0315 50.3786 36.0745C49.9244 38.2311 48.2078 40.5924 45.5705 42.8772C42.9701 45.13 39.6492 47.1567 36.3198 48.6803C32.9769 50.2099 29.7327 51.1834 27.2984 51.4118L27.5786 54.3987C30.4649 54.1279 34.0485 53.0187 37.5681 51.4082C41.1009 49.7916 44.6769 47.6207 47.5349 45.1446C50.3561 42.7004 52.6595 39.8014 53.3142 36.6927C53.649 35.1029 53.5477 33.4719 52.876 31.8818C52.2099 30.3046 51.0211 28.8571 49.3198 27.5509L47.4929 29.9305ZM31.315 50.6483L41.3036 40.2602L39.1411 38.1809L29.1525 48.569L31.315 50.6483ZM25.6261 48.8266L14.832 37.9789L12.7055 40.0949L23.4995 50.9426L25.6261 48.8266ZM28.9385 72.4921V52.9052H25.9385V72.4921H28.9385ZM27.5342 78.8787C25.296 78.7356 22.2239 77.9115 18.9632 76.5515C15.7201 75.1989 12.3953 73.36 9.65268 71.269C6.88067 69.1555 4.84605 66.8929 3.97214 64.738C3.54468 63.684 3.40808 62.6901 3.56007 61.7505C3.71125 60.8159 4.16477 59.8295 5.0862 58.8104L2.86092 56.7984C1.60742 58.1848 0.854652 59.6883 0.598559 61.2715C0.343273 62.8497 0.598417 64.4017 1.19207 65.8655C2.3604 68.7463 4.88555 71.4069 7.83377 73.6547C10.8114 75.9249 14.3673 77.8852 17.8084 79.3204C21.2317 80.7482 24.6471 81.7003 27.3429 81.8726L27.5342 78.8787ZM5.0862 58.8104C6.58622 57.1514 8.43943 56.4896 10.4482 56.6472C12.5072 56.8088 14.8239 57.8462 17.0652 59.7859C21.5415 63.6596 25.4393 70.9123 25.9406 80.4543L28.9364 80.2969C28.3985 70.0563 24.2045 61.9968 19.0284 57.5174C16.4435 55.2804 13.5439 53.8809 10.6829 53.6564C7.77184 53.428 5.00152 54.4309 2.86092 56.7984L5.0862 58.8104ZM28.9368 80.4469C29.4032 70.6435 32.6537 63.5312 36.5097 59.606C38.4375 57.6436 40.4681 56.5219 42.3421 56.1728C44.1835 55.8298 45.9467 56.2137 47.4929 57.4008L49.3198 55.0213C47.0764 53.2988 44.4436 52.7298 41.7927 53.2236C39.1745 53.7113 36.6166 55.2162 34.3696 57.5036C29.8762 62.0778 26.4324 69.9573 25.9402 80.3043L28.9368 80.4469ZM47.4929 57.4008C48.8849 58.4695 49.6933 59.527 50.1124 60.5194C50.5261 61.4988 50.5982 62.5019 50.3786 63.5448C49.9244 65.7015 48.2078 68.0627 45.5705 70.3475C42.9701 72.6004 39.6492 74.6271 36.3198 76.1506C32.9769 77.6803 29.7327 78.6538 27.2984 78.8822L27.5786 81.869C30.4649 81.5983 34.0485 80.4891 37.5681 78.8786C41.1009 77.262 44.6769 75.091 47.5349 72.6149C50.3561 70.1708 52.6595 67.2718 53.3142 64.163C53.649 62.5732 53.5477 60.9423 52.876 59.3521C52.2099 57.775 51.0211 56.3274 49.3198 55.0213L47.4929 57.4008ZM31.315 78.1187L41.3036 67.7306L39.1411 65.6513L29.1525 76.0394L31.315 78.1187ZM25.6261 76.2969L14.832 65.4492L12.7055 67.5653L23.4995 78.413L25.6261 76.2969ZM28.9385 92V80.3756H25.9385V92H28.9385ZM28.6171 47.3863V31.2624H25.6171V47.3863H28.6171ZM28.6171 31.2624V12.3517H25.6171V31.2624H28.6171Z" fill="black"/>
</svg>
